# xmcd CD database file
#
# Track frame offsets:
#	150
#	11900
#	27230
#	41185
#	53117
#	65790
#	75870
#	87572
#	102467
#	114177
#	125542
#	136297
#	148882
#	158780
#	168310
#	179462
#	190057
#	204065
#
# Disc length: 2894 seconds
#
# Revision: 0
# Processed by: cddbd v1.5.2PL0 Copyright (c) Steve Scherf et al.
# Submitted via: CDex 1.81
#
DISCID=f80b4c12
DTITLE=Various Artist - Country Nights - I've Loved and Lost Again
DYEAR=1994
DGENRE=Country
TTITLE0=Patsy Cline - I've Loved And Lost Again
TTITLE1=Ray Pillow - How Do I Hide From A Memory
TTITLE2=The Kendalls - Crying Time
TTITLE3=Conway Twitty - (Lying Here With) Linda On My Mind
TTITLE4=Jerry Wallace - In The Misty Moonlight
TTITLE5=Johnny Paycheck - Who Needs Your Love
TTITLE6=Patsy Cline - Today, Tomorrow and Forecer
TTITLE7=Billie Jo Spears - Crystal Chandeliers
TTITLE8=Guy Mitchell - Heartaches By The Number
TTITLE9=George Jones - I Can't Change Overnight
TTITLE10=Johnny Tillotson - Send Me The Pillow That You Dream On
TTITLE11=Willie Nelson - Shelter Of Your Arms
TTITLE12=Faron Young - Hello Walls
TTITLE13=Charley Pride - Kiss An Angel Goodmorning
TTITLE14=Rex Allen Jnr. - Dream On Texas Ladies
TTITLE15=Don Gibson - Oh! Lonesome Me
TTITLE16=Freddy Fender - Wasted Days and Wasted Nights
TTITLE17=Bobby Helms - My Specia Angel
EXTD=YEAR: 1994
EXTT0=
EXTT1=
EXTT2=
EXTT3=
EXTT4=
EXTT5=
EXTT6=
EXTT7=
EXTT8=
EXTT9=
EXTT10=
EXTT11=
EXTT12=
EXTT13=
EXTT14=
EXTT15=
EXTT16=
EXTT17=
PLAYORDER=
